# xmcd
#
# Track frame offsets: 
#        150
#        17875
#        34697
#        52947
#        70847
#        84627
#        101242
#        116347
#        132600
#        148450
#        161857
#        182725
#        212587
#        228057
#        250692
#        272885
#        287380
#
# Disc length: 3995 seconds
#
# Revision: 2
# Processed by: cddbd v1.5.2PL0 Copyright (c) Steve Scherf et al.
# Submitted via: ExactAudioCopyFreeDBPlugin 1.0
#
DISCID=f70f9911
DTITLE=Charlie Daniels Band - Essential Super Hits
DYEAR=2004
DGENRE=Country
TTITLE0=The South's Gonna Do It (Again)
TTITLE1=The Devil Went Down To Georgia
TTITLE2=Long Haired Country Boy
TTITLE3=Still In Saigon
TTITLE4=Texas
TTITLE5=Drinkin' My Baby Goodbye
TTITLE6=In America
TTITLE7=Simple Man
TTITLE8=This Ain't No Rag, It's A Flag
TTITLE9=Southern Boy
TTITLE10=The Legend Of Wooley Swamp
TTITLE11=Freebird
TTITLE12=Boogie Woogie Fiddle Country Blues
TTITLE13=Uneasy Rider
TTITLE14=Trudy
TTITLE15=The Intimidator
TTITLE16=The Pledge Of Allegiance
EXTD=
EXTT0=
EXTT1=
EXTT2=
EXTT3=
EXTT4=
EXTT5=
EXTT6=
EXTT7=
EXTT8=
EXTT9=with Travis tritt
EXTT10=
EXTT11=
EXTT12=
EXTT13=
EXTT14=
EXTT15=
EXTT16=
PLAYORDER=
